<?xml version="1.0" encoding="utf-8"?>
<!-- Generator: Adobe Illustrator 14.0.0, SVG Export Plug-In . SVG Version: 6.00 Build 43363)  -->
<!DOCTYPE svg PUBLIC "-//W3C//DTD SVG 1.1//EN" "http://www.w3.org/Graphics/SVG/1.1/DTD/svg11.dtd">
<svg version="1.1" xmlns="http://www.w3.org/2000/svg" xmlns:xlink="http://www.w3.org/1999/xlink" x="0px" y="0px" width="2272px"
	 height="1872px" viewBox="0 0 2272 1872" enable-background="new 0 0 2272 1872" xml:space="preserve">
<g id="background">
	<rect fill="#E9A5A6" width="2272" height="1872"/>
</g>
<g id="Flat_Design_Business_Elements">
	<path fill="#62444C" d="M2017.666,1715.779H241.213c-9.17,0-16.604-7.434-16.604-16.604l0,0c0-9.17,7.434-16.604,16.604-16.604
		h1776.453c9.17,0,16.604,7.435,16.604,16.604l0,0C2034.27,1708.346,2026.836,1715.779,2017.666,1715.779z"/>
	<g>
		
			<rect x="1365.109" y="908.574" fill="#FFFFFF" stroke="#000000" stroke-width="5" stroke-miterlimit="10" width="520.994" height="773.996"/>
		
			<line fill="#FFFFFF" stroke="#000000" stroke-width="5" stroke-miterlimit="10" x1="1419.145" y1="1211.634" x2="1832.068" y2="1211.634"/>
		
			<line fill="#FFFFFF" stroke="#000000" stroke-width="5" stroke-miterlimit="10" x1="1736.381" y1="1342.508" x2="1832.068" y2="1342.508"/>
		
			<line fill="#FFFFFF" stroke="#000000" stroke-width="5" stroke-miterlimit="10" x1="1736.381" y1="1369.539" x2="1832.068" y2="1369.539"/>
		
			<line fill="#FFFFFF" stroke="#000000" stroke-width="5" stroke-miterlimit="10" x1="1736.381" y1="1396.57" x2="1832.068" y2="1396.57"/>
		
			<line fill="#FFFFFF" stroke="#000000" stroke-width="5" stroke-miterlimit="10" x1="1736.381" y1="1423.602" x2="1832.068" y2="1423.602"/>
		
			<line fill="#FFFFFF" stroke="#000000" stroke-width="5" stroke-miterlimit="10" x1="1736.381" y1="1450.633" x2="1832.068" y2="1450.633"/>
		
			<rect x="1419.145" y="1119.073" fill="#92A1D3" stroke="#000000" stroke-width="5.0003" stroke-miterlimit="10" width="23.965" height="60.222"/>
		
			<rect x="1750.888" y="1119.073" fill="#92A1D3" stroke="#000000" stroke-width="5.0003" stroke-miterlimit="10" width="23.966" height="60.222"/>
		
			<rect x="1808.103" y="1080.359" fill="#92A1D3" stroke="#000000" stroke-width="5.0003" stroke-miterlimit="10" width="23.966" height="98.936"/>
		
			<rect x="1486.483" y="1064.588" fill="#92A1D3" stroke="#000000" stroke-width="5.0003" stroke-miterlimit="10" width="23.966" height="114.707"/>
		
			<rect x="1555.308" y="1033.76" fill="#92A1D3" stroke="#000000" stroke-width="5.0003" stroke-miterlimit="10" width="23.966" height="145.535"/>
		
			<rect x="1691.521" y="1033.76" fill="#92A1D3" stroke="#000000" stroke-width="5.0003" stroke-miterlimit="10" width="23.966" height="145.535"/>
		
			<rect x="1625.606" y="1011.536" fill="#92A1D3" stroke="#000000" stroke-width="5.0003" stroke-miterlimit="10" width="23.966" height="167.759"/>
		<circle fill="#FFFFFF" stroke="#000000" stroke-width="5" stroke-miterlimit="10" cx="1562.159" cy="1408.891" r="147.477"/>
		<path fill="#E9A5A6" stroke="#000000" stroke-width="5.0003" stroke-miterlimit="10" d="M1680,1497.567
			c18.603-24.682,29.636-55.39,29.636-88.677c0-81.449-66.027-147.477-147.477-147.477v147.477L1680,1497.567z"/>
		
			<rect x="1414.683" y="1620.714" fill="#FFFFFF" stroke="#000000" stroke-width="5" stroke-miterlimit="10" width="210.924" height="23.144"/>
		
			<rect x="1625.606" y="1620.714" fill="#92A1D3" stroke="#000000" stroke-width="5.0003" stroke-miterlimit="10" width="210.924" height="23.144"/>
		
			<rect x="1443.109" y="943.429" fill="#FFFFFF" stroke="#000000" stroke-width="5" stroke-miterlimit="10" width="364.993" height="19.715"/>
	</g>
	<g>
		<path fill="#FFFFFF" stroke="#000000" stroke-width="5" stroke-miterlimit="10" d="M1915.777,590.915L1915.777,590.915V248.932
			l0,0c39.763,0,71.996,32.234,71.996,71.997v197.99C1987.773,558.681,1955.54,590.915,1915.777,590.915z"/>
		<path fill="#FFFFFF" stroke="#000000" stroke-width="5" stroke-miterlimit="10" d="M1564.352,581.312v-79.423h-52.498v79.423
			l64.864,115.786c4.051,7.23,11.691,11.708,19.979,11.708l0,0c17.496,0,28.529-18.828,19.979-34.092L1564.352,581.312z"/>
		<path fill="#92A1D3" stroke="#000000" stroke-width="5.0003" stroke-miterlimit="10" d="M1595.276,546.423h-78.507
			c-67.103,0-121.5-54.397-121.5-121.5v-10c0-67.103,54.397-121.5,121.5-121.5h78.507V546.423z"/>
		<polygon fill="#FFFFFF" stroke="#000000" stroke-width="5" stroke-miterlimit="10" points="1595.276,293.423 1595.276,419.58 
			1595.276,419.923 1595.276,546.08 1936.776,665.349 1936.776,419.923 1936.776,419.58 1936.776,174.154 		"/>
		<path fill="#FFFFFF" stroke="#000000" stroke-width="5" stroke-miterlimit="10" d="M1586.854,302.133h-75v-11.667
			c0-10.125,8.209-18.333,18.334-18.333h38.333c10.125,0,18.333,8.208,18.333,18.333V302.133z"/>
		<polygon fill="#92A1D3" stroke="#000000" stroke-width="5.0003" stroke-miterlimit="10" points="1936.776,665.349 
			1887.27,648.059 1887.27,191.444 1936.776,174.154 		"/>
		<path fill="#E9A5A6" stroke="#000000" stroke-width="5.0003" stroke-miterlimit="10" d="M1785.41,428.355h-122.634
			c-9.626,0-17.429-7.803-17.429-17.429l0,0c0-9.626,7.803-17.429,17.429-17.429h122.634c9.626,0,17.43,7.803,17.43,17.429l0,0
			C1802.84,420.552,1795.036,428.355,1785.41,428.355z"/>
	</g>
	<g>
		
			<rect x="447.438" y="1058.859" fill="#FFFFFF" stroke="#000000" stroke-width="5" stroke-miterlimit="10" width="448.375" height="531.693"/>
		
			<rect x="492.275" y="1166.2" fill="#FFFFFF" stroke="#000000" stroke-width="5" stroke-miterlimit="10" width="358.7" height="376.86"/>
		<g>
			<path fill="#92A1D3" stroke="#000000" stroke-width="5.0003" stroke-miterlimit="10" d="M463.257,1288.489h-31.638
				c-16.026,0-29.018-12.992-29.018-29.019v-149.555h89.675v149.555C492.275,1275.497,479.283,1288.489,463.257,1288.489z"/>
			<path fill="#FFFFFF" stroke="#000000" stroke-width="5" stroke-miterlimit="10" d="M552.932,1288.489h-31.639
				c-16.026,0-29.018-12.992-29.018-29.019v-149.555h89.675v149.555C581.95,1275.497,568.958,1288.489,552.932,1288.489z"/>
			<path fill="#92A1D3" stroke="#000000" stroke-width="5.0003" stroke-miterlimit="10" d="M642.607,1288.489h-31.638
				c-16.026,0-29.019-12.992-29.019-29.019v-149.555h89.675v149.555C671.625,1275.497,658.633,1288.489,642.607,1288.489z"/>
			<path fill="#FFFFFF" stroke="#000000" stroke-width="5" stroke-miterlimit="10" d="M732.282,1288.489h-31.639
				c-16.026,0-29.019-12.992-29.019-29.019v-149.555H761.3v149.555C761.3,1275.497,748.308,1288.489,732.282,1288.489z"/>
			<path fill="#92A1D3" stroke="#000000" stroke-width="5.0003" stroke-miterlimit="10" d="M821.957,1288.489h-31.639
				c-16.026,0-29.018-12.992-29.018-29.019v-149.555h89.675v149.555C850.975,1275.497,837.983,1288.489,821.957,1288.489z"/>
			<path fill="#FFFFFF" stroke="#000000" stroke-width="5" stroke-miterlimit="10" d="M911.632,1288.489h-31.639
				c-16.026,0-29.018-12.992-29.018-29.019v-149.555h89.675v149.555C940.65,1275.497,927.658,1288.489,911.632,1288.489z"/>
		</g>
		<g>
			<path fill="#FFFFFF" stroke="#000000" stroke-width="5" stroke-miterlimit="10" d="M787.378,1506.149H555.873
				c-9.887,0-17.902-8.016-17.902-17.902v-129.526c0-9.887,8.015-17.902,17.902-17.902h231.505c9.887,0,17.902,8.016,17.902,17.902
				v129.526C805.28,1498.134,797.265,1506.149,787.378,1506.149z"/>
			<path fill="#E9A5A6" stroke="#000000" stroke-width="5.0003" stroke-miterlimit="10" d="M640.017,1378.435
				c-1.907-0.972-4.167,0.413-4.167,2.554v42.496v42.495c0,2.14,2.261,3.525,4.167,2.554l83.387-42.496
				c2.086-1.063,2.086-4.044,0-5.107L640.017,1378.435z"/>
		</g>
		<g>
			
				<rect x="447.438" y="1590.553" fill="#92A1D3" stroke="#000000" stroke-width="5.0003" stroke-miterlimit="10" width="448.375" height="46.009"/>
			
				<rect x="402.601" y="1636.562" fill="#FFFFFF" stroke="#000000" stroke-width="5" stroke-miterlimit="10" width="538.049" height="46.009"/>
		</g>
		<g>
			<polygon fill="#92A1D3" stroke="#000000" stroke-width="5.0003" stroke-miterlimit="10" points="512.271,940.918 
				422.596,940.918 402.601,1109.916 492.275,1109.916 			"/>
			<polygon fill="#FFFFFF" stroke="#000000" stroke-width="5" stroke-miterlimit="10" points="589.472,940.918 512.271,940.918 
				492.275,1109.916 581.95,1109.916 			"/>
			<polygon fill="#92A1D3" stroke="#000000" stroke-width="5.0003" stroke-miterlimit="10" points="671.625,940.918 
				589.472,940.918 581.95,1109.916 671.625,1109.916 			"/>
			<polygon fill="#FFFFFF" stroke="#000000" stroke-width="5" stroke-miterlimit="10" points="830.98,940.918 920.655,940.918 
				940.65,1109.916 850.975,1109.916 			"/>
			<polygon fill="#92A1D3" stroke="#000000" stroke-width="5.0003" stroke-miterlimit="10" points="753.779,940.918 830.98,940.918 
				850.975,1109.916 761.3,1109.916 			"/>
			<polygon fill="#FFFFFF" stroke="#000000" stroke-width="5" stroke-miterlimit="10" points="671.625,940.918 753.779,940.918 
				761.3,1109.916 671.625,1109.916 			"/>
		</g>
	</g>
	<g>
		<g>
			<path fill="#FFFFFF" stroke="#000000" stroke-width="5" stroke-miterlimit="10" d="M1233.288,1234.42H827.754
				c-27.925,0-50.563-22.638-50.563-50.563V296.983c0-27.925,22.638-50.563,50.563-50.563h405.534
				c27.926,0,50.563,22.638,50.563,50.563v886.875C1283.852,1211.782,1261.214,1234.42,1233.288,1234.42z"/>
			
				<rect x="801.783" y="332.05" fill="#62444C" stroke="#000000" stroke-width="5.0003" stroke-miterlimit="10" width="457.477" height="796.37"/>
			<path d="M1101.021,303.411h-141c-7.18,0-13-5.82-13-13l0,0c0-7.18,5.82-13,13-13h141c7.18,0,13,5.82,13,13l0,0
				C1114.021,297.591,1108.201,303.411,1101.021,303.411z"/>
			<path fill="#E5E5E5" stroke="#000000" stroke-width="5.0003" stroke-miterlimit="10" d="M1094.722,1208.126H966.321
				c-10.659,0-19.299-8.64-19.299-19.299v-19.536c0-10.659,8.641-19.3,19.299-19.3h128.401c10.659,0,19.299,8.641,19.299,19.3
				v19.536C1114.021,1199.486,1105.381,1208.126,1094.722,1208.126z"/>
			
				<rect x="818.191" y="381.753" fill="#E9A5A6" stroke="#000000" stroke-width="5.0003" stroke-miterlimit="10" width="422.274" height="406.051"/>
			
				<rect x="818.191" y="919.266" fill="#92A1D3" stroke="#000000" stroke-width="5.0003" stroke-miterlimit="10" width="422.274" height="182.728"/>
			<g>
				<rect x="839.856" y="749.585" fill="#BA8588" width="170.5" height="12"/>
				<rect x="1010.356" y="749.585" fill="#E5B3B7" width="212.5" height="12"/>
			</g>
			<circle fill="#F9D2D7" cx="1010.356" cy="755.585" r="13.25"/>
			<path fill="#FFFFFF" stroke="#000000" stroke-width="5" stroke-miterlimit="10" d="M967.386,461.129
				c-4.285-2.184-9.365,0.929-9.365,5.738v95.489v95.49c0,4.809,5.08,7.922,9.365,5.738l187.375-95.489
				c4.688-2.389,4.688-9.087,0-11.477L967.386,461.129z"/>
			<g>
				<g>
					<g>
						<rect x="818.191" y="809.42" fill="#E9A5A6" width="422.274" height="15"/>
						
							<rect x="818.191" y="809.42" fill="none" stroke="#000000" stroke-width="5.0003" stroke-miterlimit="10" width="422.274" height="15"/>
					</g>
					<g>
						<rect x="818.191" y="846.035" fill="#E9A5A6" width="175.5" height="15"/>
						
							<rect x="818.191" y="846.035" fill="none" stroke="#000000" stroke-width="5.0003" stroke-miterlimit="10" width="175.5" height="15"/>
					</g>
					<g>
						<rect x="818.191" y="882.651" fill="#E9A5A6" width="359.5" height="15"/>
						
							<rect x="818.191" y="882.651" fill="none" stroke="#000000" stroke-width="5.0003" stroke-miterlimit="10" width="359.5" height="15"/>
					</g>
				</g>
			</g>
			<rect x="801.783" y="332.05" width="457.477" height="30.37"/>
		</g>
		<g>
			<g>
				<path fill="#FFFFFF" stroke="#000000" stroke-width="5" stroke-miterlimit="10" d="M842.664,696.451h-108.18
					c-27.012,0-48.91-21.897-48.91-48.91l0,0c0-27.013,21.898-48.91,48.91-48.91h108.18c27.012,0,48.91,21.897,48.91,48.91l0,0
					C891.574,674.554,869.676,696.451,842.664,696.451z"/>
				<path fill="#FFFFFF" stroke="#000000" stroke-width="5" stroke-miterlimit="10" d="M863.076,678.057h-9.982
					c-16.854,0-30.516-13.663-30.516-30.516l0,0c0-16.854,13.663-30.516,30.516-30.516h9.982V678.057z"/>
			</g>
			<g>
				<path fill="#FFFFFF" stroke="#000000" stroke-width="5" stroke-miterlimit="10" d="M882.664,804.371h-148.18
					c-27.012,0-48.91-21.898-48.91-48.91l0,0c0-27.013,21.898-48.911,48.91-48.911h148.18c27.012,0,48.91,21.898,48.91,48.911l0,0
					C931.574,782.473,909.676,804.371,882.664,804.371z"/>
				<path fill="#FFFFFF" stroke="#000000" stroke-width="5" stroke-miterlimit="10" d="M903.574,785.977h-9.982
					c-16.854,0-30.516-13.663-30.516-30.516l0,0c0-16.854,13.663-30.516,30.516-30.516h9.982V785.977z"/>
			</g>
			<g>
				<path fill="#FFFFFF" stroke="#000000" stroke-width="5" stroke-miterlimit="10" d="M858.664,912.29h-124.18
					c-27.012,0-48.91-21.898-48.91-48.91v0c0-27.012,21.898-48.91,48.91-48.91h124.18c27.012,0,48.91,21.898,48.91,48.91v0
					C907.574,890.392,885.676,912.29,858.664,912.29z"/>
				<path fill="#FFFFFF" stroke="#000000" stroke-width="5" stroke-miterlimit="10" d="M877.884,893.896h-9.982
					c-16.854,0-30.516-13.662-30.516-30.516v0c0-16.854,13.663-30.516,30.516-30.516h9.982V893.896z"/>
			</g>
			<g>
				<path fill="#FFFFFF" stroke="#000000" stroke-width="5" stroke-miterlimit="10" d="M808.725,1020.209h-74.24
					c-27.012,0-48.91-21.897-48.91-48.91l0,0c0-27.013,21.898-48.91,48.91-48.91h74.24c27.013,0,48.91,21.897,48.91,48.91l0,0
					C857.635,998.312,835.737,1020.209,808.725,1020.209z"/>
				<path fill="#FFFFFF" stroke="#000000" stroke-width="5" stroke-miterlimit="10" d="M829.574,1001.815h-9.982
					c-16.854,0-30.516-13.663-30.516-30.517l0,0c0-16.854,13.663-30.516,30.516-30.516h9.982V1001.815z"/>
			</g>
		</g>
		<path fill="#FFFFFF" stroke="#000000" stroke-width="5" stroke-miterlimit="10" d="M1261.439,689.833l-145.301-79.462
			c-23.497-12.85-52.921-5.525-67.651,16.841l0,0c-15.487,23.515-9.194,55.11,14.12,70.897l146.62,99.283l31.564,54.752
			c24.653,42.765,17.627,96.741-17.155,131.77l-34.043,34.284c-36.198,36.456-63.426,80.828-79.531,129.613l-28.591,86.609H928.833
			l95.717,199.21h326.111l57.801-387.714c11.68-78.345-4.785-158.294-46.47-225.649l-52.598-84.989
			C1297.61,716.236,1281.086,700.577,1261.439,689.833z"/>
		<path fill="#FFFFFF" stroke="#000000" stroke-width="5" stroke-miterlimit="10" d="M1126.176,658.436l-6.487,10.096
			c-9.562,14.88-29.375,19.191-44.255,9.629l-24.354-15.65c-14.88-9.562-19.191-29.375-9.629-44.255l6.487-10.095
			c9.562-14.88,29.375-19.191,44.255-9.629l24.354,15.65C1131.427,623.743,1135.738,643.556,1126.176,658.436z"/>
		
			<rect x="983.508" y="1433.63" fill="#FFFFFF" stroke="#000000" stroke-width="5" stroke-miterlimit="10" width="399.487" height="126.201"/>
		
			<rect x="983.508" y="1559.831" fill="#92A1D3" stroke="#000000" stroke-width="5.0003" stroke-miterlimit="10" width="399.487" height="155.948"/>
		<g>
			<circle fill="#FFFFFF" stroke="#000000" stroke-width="5" stroke-miterlimit="10" cx="1030.521" cy="1496.73" r="26.528"/>
			<g>
				<rect x="1033.999" y="1483.596" width="1.803" height="26.271"/>
				<rect x="1025.242" y="1483.596" width="1.803" height="26.271"/>
			</g>
		</g>
	</g>
	<g>
		<g>
			<path fill="#FFFFFF" stroke="#000000" stroke-width="5" stroke-miterlimit="10" d="M504.053,1014.941
				c0-90.708-73.533-164.241-164.241-164.241h-0.001c-90.708,0-164.241,73.534-164.241,164.241l0,0
				c0,27.786,6.903,53.957,19.083,76.899c5.504,10.367,10.788,20.851,15.531,31.587l46.488,105.24h83.14h83.14l46.488-105.24
				c4.743-10.737,10.027-21.22,15.531-31.587C497.15,1068.898,504.053,1042.727,504.053,1014.941L504.053,1014.941z"/>
			<circle fill="#E9A5A6" stroke="#000000" stroke-width="5.0003" stroke-miterlimit="10" cx="339.812" cy="995.184" r="15.333"/>
			<circle fill="#E9A5A6" stroke="#000000" stroke-width="5.0003" stroke-miterlimit="10" cx="339.812" cy="1061.442" r="26.833"/>
			<circle fill="#E9A5A6" stroke="#000000" stroke-width="5.0003" stroke-miterlimit="10" cx="339.812" cy="1145.018" r="32.65"/>
			<g>
				<circle fill="#92A1D3" stroke="#000000" stroke-width="5.0003" stroke-miterlimit="10" cx="246.886" cy="1061.586" r="15.333"/>
				
					<line fill="#01A0D8" stroke="#000000" stroke-width="5" stroke-miterlimit="10" x1="298.219" y1="1228.812" x2="246.886" y2="1061.586"/>
			</g>
			<g>
				<circle fill="#92A1D3" stroke="#000000" stroke-width="5.0003" stroke-miterlimit="10" cx="433.078" cy="1061.586" r="15.333"/>
				
					<line fill="#01A0D8" stroke="#000000" stroke-width="5" stroke-miterlimit="10" x1="381.745" y1="1228.812" x2="433.078" y2="1061.586"/>
			</g>
			
				<rect x="256.672" y="1228.668" fill="#92A1D3" stroke="#000000" stroke-width="5.0003" stroke-miterlimit="10" width="166.279" height="54"/>
			<path fill="#FFFFFF" stroke="#000000" stroke-width="5" stroke-miterlimit="10" d="M381.951,1323.668h-84.279
				c-22.644,0-41-18.356-41-41l0,0h166.279l0,0C422.951,1305.312,404.595,1323.668,381.951,1323.668z"/>
		</g>
		<path fill="#92A1D3" stroke="#000000" stroke-width="5.0003" stroke-miterlimit="10" d="M339.812,1377.522L339.812,1377.522
			c-17.396,0-31.499-14.103-31.499-31.498v-23.431h62.997v23.431C371.31,1363.42,357.208,1377.522,339.812,1377.522z"/>
	</g>
	<g>
		<circle fill="#FFFFFF" stroke="#000000" stroke-width="5" stroke-miterlimit="10" cx="473.815" cy="472.033" r="181.253"/>
		
			<line fill="#FFFFFF" stroke="#000000" stroke-width="5" stroke-miterlimit="10" x1="292.563" y1="472.033" x2="655.068" y2="472.033"/>
		<g>
			<path fill="none" stroke="#000000" stroke-width="5" stroke-miterlimit="10" d="M473.815,290.78c0,0-98.831,181.575,0,362.506"/>
			<path fill="none" stroke="#000000" stroke-width="5" stroke-miterlimit="10" d="M473.815,653.286
				c98.831-180.931,0-362.506,0-362.506"/>
		</g>
		
			<line fill="none" stroke="#000000" stroke-width="5" stroke-miterlimit="10" x1="473.815" y1="290.78" x2="473.815" y2="653.286"/>
		<path fill="none" stroke="#000000" stroke-width="5" stroke-miterlimit="10" d="M425.039,297.428c0,0-172.053,179.186,0,349.21"/>
		<path fill="none" stroke="#000000" stroke-width="5" stroke-miterlimit="10" d="M523.097,297.428c0,0,172.053,179.186,0,349.21"/>
		<path fill="none" stroke="#000000" stroke-width="5" stroke-miterlimit="10" d="M325.243,368.194c0,0,144.589,64.532,296.719,0"/>
		<path fill="none" stroke="#000000" stroke-width="5" stroke-miterlimit="10" d="M325.243,575.856c0,0,144.589-64.532,296.719,0"/>
	</g>
	<g>
		<path stroke="#000000" stroke-width="5" stroke-miterlimit="10" d="M1985.232,771.447h-106.265
			c-25.771,0-46.663,20.892-46.663,46.664v89.169h16.633v-86.89c0-19.347,15.684-35.031,35.031-35.031h96.263
			c19.348,0,35.032,15.684,35.032,35.031v86.89h16.632v-89.169C2031.896,792.339,2011.004,771.447,1985.232,771.447z"/>
		<path fill="#92A1D3" stroke="#000000" stroke-width="5.0003" stroke-miterlimit="10" d="M2057.252,1103.693h-250.304
			c-13.807,0-25-11.192-25-25V875.257c0-13.807,11.193-25,25-25h250.304c13.807,0,25,11.193,25,25v203.437
			C2082.252,1092.501,2071.059,1103.693,2057.252,1103.693z"/>
		
			<rect x="1832.305" y="907.28" fill="#E9A5A6" stroke="#000000" stroke-width="5.0003" stroke-miterlimit="10" width="199.591" height="27.878"/>
		<g>
			<g>
				<rect x="1832.305" y="963.036" width="51.019" height="21.12"/>
				<rect x="1980.877" y="963.036" width="51.019" height="21.12"/>
				<rect x="1906.591" y="963.036" width="51.019" height="21.12"/>
			</g>
			<g>
				<rect x="1832.305" y="997.673" width="51.019" height="21.119"/>
				<rect x="1980.877" y="997.673" width="51.019" height="21.119"/>
				<rect x="1906.591" y="997.673" width="51.019" height="21.119"/>
			</g>
			<g>
				<rect x="1832.305" y="1032.309" width="51.019" height="21.12"/>
				<rect x="1980.877" y="1032.309" width="51.019" height="21.12"/>
				<rect x="1906.591" y="1032.309" width="51.019" height="21.12"/>
			</g>
		</g>
	</g>
</g>
</svg>
